<?xml version="1.0" standalone="no"?>
<!DOCTYPE svg PUBLIC "-//W3C//DTD SVG 20010904//EN"
 "http://www.w3.org/TR/2001/REC-SVG-20010904/DTD/svg10.dtd">
<svg version="1.0" xmlns="http://www.w3.org/2000/svg"
 width="275.000000pt" height="275.000000pt" viewBox="0 0 275.000000 275.000000"
 preserveAspectRatio="xMidYMid meet">
<metadata>
Created by potrace 1.14, written by Peter Selinger 2001-2017
</metadata>
<g transform="translate(0.000000,275.000000) scale(0.100000,-0.100000)"
fill="#000000" stroke="none">
<path d="M1361 2670 c-34 -57 -53 -164 -61 -350 -5 -125 -12 -188 -24 -220 -9
-24 -26 -116 -37 -205 -11 -88 -29 -198 -39 -245 -26 -114 -40 -205 -40 -265
l0 -50 -58 -27 c-113 -54 -538 -250 -570 -264 l-33 -15 2 61 c1 36 -2 65 -9
72 -7 7 -12 20 -12 30 0 10 -4 18 -10 18 -5 0 -10 -10 -10 -22 0 -12 -7 -30
-17 -40 -15 -17 -15 -18 0 -18 15 0 17 -16 17 -129 0 -102 -3 -131 -15 -141
-21 -17 -20 -80 1 -80 8 0 22 -6 29 -14 18 -17 58 -21 400 -42 149 -9 272 -18
274 -20 2 -2 -8 -35 -23 -74 -15 -41 -26 -92 -26 -120 0 -47 -3 -52 -110 -177
l-110 -128 0 -71 c0 -73 10 -94 44 -94 10 0 88 36 173 80 84 44 155 80 157 80
3 0 7 -14 11 -30 6 -28 10 -30 49 -30 40 0 44 3 54 33 l12 32 -6 -37 c-4 -30
-2 -38 11 -38 13 0 15 8 11 37 l-6 38 12 -32 c10 -30 14 -33 54 -33 38 0 43 3
49 28 l6 28 160 -78 c89 -43 169 -78 178 -78 31 0 41 22 41 94 l0 71 -110 128
c-107 125 -110 130 -110 177 0 28 -11 79 -26 120 -15 39 -25 72 -23 74 2 2
126 11 274 20 342 21 382 25 400 42 7 8 21 14 29 14 21 0 22 63 1 80 -12 10
-15 39 -15 141 0 113 2 129 17 129 15 0 15 1 0 18 -10 10 -17 28 -17 40 0 12
-4 22 -10 22 -5 0 -10 -8 -10 -18 0 -10 -5 -23 -12 -30 -7 -7 -10 -36 -9 -72
l2 -61 -33 15 c-32 14 -457 210 -570 264 l-58 27 0 50 c0 60 -14 151 -40 265
-10 47 -28 157 -39 245 -11 88 -29 187 -41 219 -16 47 -20 85 -20 180 0 184
-27 336 -69 387 l-19 23 -21 -34z"/>
</g>
</svg>
