<svg xmlns="http://www.w3.org/2000/svg" version="1.1" xmlns:xlink="http://www.w3.org/1999/xlink" xmlns:svgjs="http://svgjs.com/svgjs" width="512" height="512" x="0" y="0" viewBox="0 0 512 512" style="enable-background:new 0 0 512 512" xml:space="preserve" class=""><g><path fill-rule="evenodd" d="M279.769 90.401a190.586 190.586 0 0 1 55.803 23.134l36.261-16.104 42.738 42.736-16.1 36.25a190.496 190.496 0 0 1 23.138 55.817l36.995 14.24v60.439L421.6 321.156a190.575 190.575 0 0 1-23.134 55.803l16.104 36.261-42.737 42.738-36.249-16.101a190.54 190.54 0 0 1-55.818 23.138l-14.24 36.995h-60.439l-14.243-37.004a190.558 190.558 0 0 1-55.802-23.134L98.78 455.957 56.044 413.22l16.1-36.249a190.584 190.584 0 0 1-23.138-55.817l-36.995-14.24v-60.439l37-14.242a190.564 190.564 0 0 1 23.136-55.807l-16.103-36.257 42.737-42.738 36.261 16.104a190.591 190.591 0 0 1 55.802-23.134l14.244-37.003h60.438zm141.489.341c-4.479-4.479-11.741-4.479-16.22 0s-4.479 11.741 0 16.22 11.741 4.479 16.22 0 4.479-11.741 0-16.22zm-10.75-15.668c15.227-.687 27.118 10.879 26.417 26.418a7.977 7.977 0 0 0 15.938.688C453.98 77.4 434.6 58.02 409.82 59.137a7.977 7.977 0 0 0 .688 15.937zm65.872 26.044c1.703-37.766-27.732-67.201-65.498-65.498a7.977 7.977 0 0 0 .688 15.938c28.387-1.28 50.153 20.486 48.873 48.873a7.977 7.977 0 1 0 15.937.687zm-63.75-73.075c41.376-1.865 73.192 29.95 71.327 71.327a7.977 7.977 0 0 0 15.938.688c2.288-50.755-37.197-90.24-87.952-87.952a7.977 7.977 0 0 0 .687 15.937zm-95.739 185.519 8.167-14.145a7.966 7.966 0 0 0-13.813-7.937l-8.167 14.145a7.966 7.966 0 0 0 13.813 7.937zm14.496 34.365 15.777-4.228a7.99 7.99 0 1 0-4.125-15.437l-15.777 4.228a7.99 7.99 0 1 0 4.125 15.437zm-9.145 35.154 14.146 8.167a7.981 7.981 0 0 0 8-13.812l-14.145-8.167a7.981 7.981 0 0 0-10.906 2.906 7.98 7.98 0 0 0 2.905 10.906zm-138.703-38.465-33.538 8.986c-17.555 4.704-28.069 22.915-23.365 40.468 4.704 17.554 22.915 28.069 40.469 23.365l33.538-8.987zm85.44-52.73c-1.992-7.437-11.199-9.96-16.705-4.578-3.199 3.127-6.474 6.408-9.834 9.768l32.493 121.266a764.89 764.89 0 0 1 13.048 3.97c7.57 2.365 14.736-4.513 12.684-12.173zm-71.133 44.305 19.21 71.695c13.676.328 27.017 2.55 40.028 5.663l-27.749-103.56c-9.747 9.353-20.192 18.591-31.489 26.202zm18.403 130.503-11.465-42.79-23.679 6.345 6.766 25.25c2.588 9.66 12.579 15.428 22.239 12.84zm81.087-130.798 6.441 24.04c3.903-8.514 1.195-18.618-6.441-24.04zm-62.029-98.634c-77.006 0-139.431 62.425-139.431 139.431s62.426 139.431 139.431 139.431c77.006 0 139.432-62.426 139.432-139.431-.001-77.006-62.426-139.431-139.432-139.431z" clip-rule="evenodd" fill="#ffffff" data-original="#000000" class="" opacity="1"></path></g></svg>