<svg xmlns="http://www.w3.org/2000/svg" version="1.1" xmlns:xlink="http://www.w3.org/1999/xlink" xmlns:svgjs="http://svgjs.com/svgjs" width="512" height="512" x="0" y="0" viewBox="0 0 48 48" style="enable-background:new 0 0 512 512" xml:space="preserve" fill-rule="evenodd"><g><path d="M14.5 3C13.121 3 12 4.12 12 5.5V6H9a3 3 0 0 0-3 3v33c0 .796.316 1.559.879 2.121A2.996 2.996 0 0 0 9 45h10a1 1 0 0 0 0-2H9a.997.997 0 0 1-1-1V9a1 1 0 0 1 1-1h3v.5a2.5 2.5 0 0 0 2.5 2.5h13A2.5 2.5 0 0 0 30 8.5V8h3a1 1 0 0 1 1 1l-.027 9.996a1.001 1.001 0 0 0 2 .008L36 9a3 3 0 0 0-3-3h-3v-.5C30 4.12 28.879 3 27.5 3h-13zm0 2h13a.5.5 0 0 1 .5.5v3a.5.5 0 0 1-.5.5h-13a.5.5 0 0 1-.5-.5v-3a.5.5 0 0 1 .5-.5zM11 13a1 1 0 0 0-1 1v4a1 1 0 0 0 1 1h4a1 1 0 0 0 1-1v-4a1 1 0 0 0-1-1zm1 2h2v2h-2zm7 0a1 1 0 0 0 0 2h12a1 1 0 0 0 0-2zm-8 6a1 1 0 0 0-1 1v4a1 1 0 0 0 1 1h4a1 1 0 0 0 1-1v-4a1 1 0 0 0-1-1zm19.041.08c-.386 0-.773.019-1.158.057a.996.996 0 0 0-.881.793l-.217 1.043a10.87 10.87 0 0 0-.828.222l-.705-.797a1 1 0 0 0-1.162-.246c-.704.319-1.374.708-2.002 1.157a1 1 0 0 0-.369 1.128l.336 1.012c-.21.193-.413.395-.606.606l-1.01-.336a.997.997 0 0 0-1.128.367c-.45.629-.839 1.3-1.159 2.004a1 1 0 0 0 .246 1.162l.797.705c-.085.273-.159.549-.222.828L18.93 31c-.429.089-.75.447-.793.883a12.088 12.088 0 0 0 0 2.314.999.999 0 0 0 .793.881l1.043.217c.063.278.137.553.222.826l-.797.707a1 1 0 0 0-.246 1.162c.32.704.709 1.374 1.159 2.002a1 1 0 0 0 1.128.369l1.01-.336c.193.21.396.413.606.606l-.336 1.01a1 1 0 0 0 .369 1.129c.628.45 1.298.838 2.002 1.158a1 1 0 0 0 1.162-.246l.707-.797c.272.085.549.159.828.222l.215 1.043c.088.429.445.75.881.793.77.074 1.545.074 2.314 0 .436-.043.794-.364.883-.793l.215-1.043c.279-.063.553-.137.826-.222l.707.797a1 1 0 0 0 1.162.246c.704-.32 1.375-.708 2.004-1.158a.998.998 0 0 0 .367-1.129l-.336-1.01c.211-.193.413-.396.606-.606l1.012.336a1 1 0 0 0 1.128-.369c.449-.628.838-1.298 1.157-2.002a1 1 0 0 0-.246-1.162l-.797-.707c.085-.272.159-.549.222-.828l1.043-.215a.996.996 0 0 0 .793-.881c.075-.77.075-1.545 0-2.314A1 1 0 0 0 41.15 31l-1.043-.215a10.746 10.746 0 0 0-.222-.828l.797-.705a1 1 0 0 0 .246-1.162 11.92 11.92 0 0 0-1.157-2.004.997.997 0 0 0-1.128-.367l-1.012.336a9.622 9.622 0 0 0-.606-.606l.336-1.011a.999.999 0 0 0-.367-1.129 11.92 11.92 0 0 0-2.004-1.157 1 1 0 0 0-1.162.246l-.707.797a10.698 10.698 0 0 0-.826-.222l-.215-1.043a1 1 0 0 0-.883-.793c-.384-.038-.77-.057-1.156-.057zM12 23h2v2h-2zm17.807.082h.468l.196.949c.084.41.414.725.828.789a8.282 8.282 0 0 1 1.762.473 1 1 0 0 0 1.111-.27l.644-.722c.137.074.273.151.407.232l-.307.92c-.132.397-.003.836.324 1.098a8.27 8.27 0 0 1 1.289 1.289c.262.327.701.456 1.098.324l.92-.307c.081.134.157.27.232.407l-.722.644a1.002 1.002 0 0 0-.27 1.112c.222.569.381 1.158.473 1.761.064.414.379.744.789.828l.947.196c.004.157.004.312 0 .468l-.947.196c-.41.085-.725.416-.789.83a8.282 8.282 0 0 1-.473 1.762c-.152.389-.043.833.27 1.111l.722.642a8.55 8.55 0 0 1-.232.407l-.92-.305a1.004 1.004 0 0 0-1.098.322 8.283 8.283 0 0 1-1.289 1.291 1.002 1.002 0 0 0-.324 1.098l.307.92c-.134.081-.27.157-.407.232l-.644-.724a1 1 0 0 0-1.111-.268 8.342 8.342 0 0 1-1.762.473.998.998 0 0 0-.828.787l-.196.949a9.127 9.127 0 0 1-.468 0l-.196-.949a1.002 1.002 0 0 0-.83-.787 8.333 8.333 0 0 1-1.761-.473 1.002 1.002 0 0 0-1.112.268l-.642.724a9.516 9.516 0 0 1-.407-.232l.305-.92a1.003 1.003 0 0 0-.322-1.098 8.296 8.296 0 0 1-1.291-1.291 1.003 1.003 0 0 0-1.098-.322l-.92.305a9.516 9.516 0 0 1-.232-.407l.724-.642a1 1 0 0 0 .268-1.111 8.342 8.342 0 0 1-.473-1.762 1.002 1.002 0 0 0-.787-.83l-.951-.196a9.05 9.05 0 0 1 0-.466l.951-.198a.998.998 0 0 0 .787-.828 8.333 8.333 0 0 1 .473-1.761c.152-.39.045-.834-.268-1.112l-.724-.644c.075-.137.151-.273.232-.407l.92.307c.397.132.837.003 1.098-.324a8.283 8.283 0 0 1 1.291-1.289c.326-.262.454-.701.322-1.098l-.305-.92c.133-.081.269-.157.407-.232l.642.722c.278.313.723.422 1.112.27a8.273 8.273 0 0 1 1.761-.473c.414-.064.745-.379.83-.789zm.232 4.025c-3.274 0-5.932 2.658-5.932 5.932s2.658 5.934 5.932 5.934 5.934-2.66 5.934-5.934-2.66-5.932-5.934-5.932zM11 29a1 1 0 0 0-1 1v4a1 1 0 0 0 1 1h4a1 1 0 0 0 1-1v-4a1 1 0 0 0-1-1zm19.039.107c2.17 0 3.934 1.762 3.934 3.932s-1.764 3.934-3.934 3.934-3.932-1.764-3.932-3.934 1.762-3.932 3.932-3.932zM12 31h2v2h-2z" fill="#ffffff" data-original="#000000" opacity="1"></path></g></svg>