<svg xmlns="http://www.w3.org/2000/svg" version="1.1" xmlns:xlink="http://www.w3.org/1999/xlink" width="512" height="512" x="0" y="0" viewBox="0 0 356 356" style="enable-background:new 0 0 512 512" xml:space="preserve" fill-rule="evenodd" class=""><g><path d="M55.556 108.226v197.33a5.555 5.555 0 0 0 5.555 5.555h177.778a5.555 5.555 0 0 0 5.555-5.555v-88.889c0-3.067 2.49-5.556 5.556-5.556s5.556 2.489 5.556 5.556v88.888c0 9.205-7.462 16.667-16.667 16.667H61.111c-9.205 0-16.667-7.462-16.667-16.666v-200a5.56 5.56 0 0 1 2.085-4.339l83.334-66.666a5.556 5.556 0 0 1 3.47-1.218h105.556c9.205 0 16.667 7.462 16.667 16.667v116.667c0 3.066-2.49 5.555-5.556 5.555s-5.556-2.489-5.556-5.555V50a5.556 5.556 0 0 0-5.555-5.556H135.282l-79.726 63.782z" fill="#1e2f97" opacity="1" data-original="#000000"></path><path d="M122.222 111.111c9.205 0 16.667-7.462 16.667-16.666V38.889a5.554 5.554 0 0 0-9.026-4.338l-83.334 66.666A5.556 5.556 0 0 0 50 111.111zm5.556-60.663L65.838 100h56.384a5.556 5.556 0 0 0 5.556-5.555zM183.776 224.639a5.555 5.555 0 0 0 0 7.857l23.57 23.57a5.555 5.555 0 0 0 7.857 0l78.567-78.567a5.555 5.555 0 0 0 0-7.857l-23.57-23.57a5.555 5.555 0 0 0-7.857 0zm11.785 3.928 15.714 15.714 70.71-70.711-15.713-15.713z" fill="#1e2f97" opacity="1" data-original="#000000"></path><path d="M207.346 256.066a5.555 5.555 0 0 0 7.857 0l78.567-78.567a5.555 5.555 0 0 0 0-7.857l-23.57-23.57a5.555 5.555 0 0 0-7.857 0l-78.567 78.567a5.555 5.555 0 0 0 0 7.857zm-11.785-27.499 15.714 15.714 70.71-70.711-15.713-15.713z" fill="#1e2f97" opacity="1" data-original="#000000"></path><path d="M285.914 177.499a5.556 5.556 0 0 0 7.856 0l7.857-7.857c6.509-6.509 6.509-17.062 0-23.57l-7.857-7.857c-6.508-6.509-17.061-6.509-23.57 0l-7.857 7.857a5.556 5.556 0 0 0 0 7.856zm3.928-11.786 3.928-3.928a5.555 5.555 0 0 0 0-7.857l-7.856-7.856a5.555 5.555 0 0 0-7.857 0L274.129 150zM215.203 256.066a5.555 5.555 0 0 0 0-7.857l-23.57-23.57a5.555 5.555 0 0 0-7.857 0l-7.295 7.296a5.556 5.556 0 0 0-1.445 2.514l-8.418 31.988a5.556 5.556 0 0 0 6.787 6.787l31.988-8.418a5.563 5.563 0 0 0 2.514-1.444zm-29.804-17.337-5.612 21.326 21.326-5.612 2.305-2.305-15.714-15.714zM88.889 155.556h33.333c3.066 0 5.556-2.49 5.556-5.556s-2.49-5.556-5.556-5.556H88.889c-3.066 0-5.556 2.49-5.556 5.556s2.49 5.556 5.556 5.556zM88.889 183.333H200c3.066 0 5.556-2.489 5.556-5.555s-2.49-5.556-5.556-5.556H88.889c-3.066 0-5.556 2.49-5.556 5.556s2.49 5.555 5.556 5.555zM88.889 211.111h88.889a5.557 5.557 0 0 0 5.555-5.555 5.558 5.558 0 0 0-5.555-5.556H88.889a5.559 5.559 0 0 0-5.556 5.556 5.558 5.558 0 0 0 5.556 5.555zM88.889 238.889h72.222a5.559 5.559 0 0 0 5.556-5.556 5.558 5.558 0 0 0-5.556-5.555H88.889a5.558 5.558 0 0 0-5.556 5.555 5.559 5.559 0 0 0 5.556 5.556zM88.889 266.667H150c3.066 0 5.556-2.49 5.556-5.556s-2.49-5.555-5.556-5.555H88.889c-3.066 0-5.556 2.489-5.556 5.555s2.49 5.556 5.556 5.556z" fill="#1e2f97" opacity="1" data-original="#000000"></path></g></svg>