<?xml version="1.0" encoding="UTF-8"?>
<!DOCTYPE svg PUBLIC "-//W3C//DTD SVG 1.1//EN" "http://www.w3.org/Graphics/SVG/1.1/DTD/svg11.dtd">
<svg xmlns="http://www.w3.org/2000/svg" version="1.1" width="203px" height="275px" style="shape-rendering:geometricPrecision; text-rendering:geometricPrecision; image-rendering:optimizeQuality; fill-rule:evenodd; clip-rule:evenodd" xmlns:xlink="http://www.w3.org/1999/xlink">
<g><path style="opacity:1" fill="#1d1d1d" d="M 110.5,41.5 C 109.527,39.0521 109.194,36.3854 109.5,33.5C 104.5,33.5 99.5,33.5 94.5,33.5C 94.8064,36.3854 94.4731,39.0521 93.5,41.5C 93.4453,30.9367 94.9453,20.6034 98,10.5C 100.667,2.5 103.333,2.5 106,10.5C 109.055,20.6034 110.555,30.9367 110.5,41.5 Z"/></g>
<g><path style="opacity:1" fill="#060606" d="M 110.5,41.5 C 110.334,47.1764 110.501,52.8431 111,58.5C 112.741,63.0544 114.074,67.7211 115,72.5C 118.05,95.5818 121.55,118.582 125.5,141.5C 147.025,151.4 168.525,161.4 190,171.5C 190.789,167.909 190.622,164.409 189.5,161C 191.476,158.853 192.809,156.353 193.5,153.5C 193.928,156.522 195.261,159.022 197.5,161C 196.552,161.483 195.552,161.649 194.5,161.5C 194.334,170.173 194.5,178.84 195,187.5C 197.251,190.017 198.084,193.017 197.5,196.5C 193.828,198.486 189.828,199.653 185.5,200C 169.514,201.166 153.514,201.999 137.5,202.5C 132.833,202.5 128.167,202.5 123.5,202.5C 122.272,195.923 120.272,189.59 117.5,183.5C 116.167,198.833 116.167,214.167 117.5,229.5C 121.5,231.5 125.5,233.5 129.5,235.5C 130.169,233.369 130.835,231.369 131.5,229.5C 138.498,237.333 145.331,245.333 152,253.5C 152.667,258.5 152.667,263.5 152,268.5C 150.192,270.396 148.025,270.896 145.5,270C 135.224,264.946 125.057,259.779 115,254.5C 114.187,256.436 113.687,258.436 113.5,260.5C 110.5,260.5 107.5,260.5 104.5,260.5C 104.313,258.436 103.813,256.436 103,254.5C 102.666,256.847 102.833,259.181 103.5,261.5C 102.5,261.5 101.5,261.5 100.5,261.5C 101.167,259.181 101.334,256.847 101,254.5C 100.187,256.436 99.687,258.436 99.5,260.5C 96.5,260.5 93.5,260.5 90.5,260.5C 90.4348,258.304 89.7681,256.304 88.5,254.5C 78.6569,259.922 68.6569,265.089 58.5,270C 55.975,270.896 53.8083,270.396 52,268.5C 51.3333,263.5 51.3333,258.5 52,253.5C 58.6688,245.333 65.5021,237.333 72.5,229.5C 73.1646,231.369 73.8313,233.369 74.5,235.5C 78.5,233.5 82.5,231.5 86.5,229.5C 87.8333,214.167 87.8333,198.833 86.5,183.5C 83.7275,189.59 81.7275,195.923 80.5,202.5C 75.8333,202.5 71.1667,202.5 66.5,202.5C 50.4862,201.999 34.4862,201.166 18.5,200C 14.1717,199.653 10.1717,198.486 6.5,196.5C 5.91588,193.017 6.74922,190.017 9,187.5C 9.49975,178.84 9.66642,170.173 9.5,161.5C 5.86687,161.557 5.7002,160.557 9,158.5C 9.2022,156.744 9.7022,155.078 10.5,153.5C 11.1906,156.353 12.5239,158.853 14.5,161C 13.3781,164.409 13.2114,167.909 14,171.5C 35.4748,161.4 56.9748,151.4 78.5,141.5C 82.4497,118.582 85.9497,95.5818 89,72.5C 89.9261,67.7211 91.2595,63.0544 93,58.5C 93.4994,52.8431 93.6661,47.1764 93.5,41.5C 94.4731,39.0521 94.8064,36.3854 94.5,33.5C 99.5,33.5 104.5,33.5 109.5,33.5C 109.194,36.3854 109.527,39.0521 110.5,41.5 Z"/></g>
<g><path style="opacity:1" fill="#777777" d="M 101.5,57.5 C 103.408,57.8834 104.908,58.8834 106,60.5C 107.325,65.4012 107.825,70.4012 107.5,75.5C 103.833,75.5 100.167,75.5 96.5,75.5C 96.0682,70.0021 96.7348,64.6688 98.5,59.5C 99.6016,58.8243 100.602,58.1577 101.5,57.5 Z"/></g>
<g><path style="opacity:1" fill="#797979" d="M 96.5,76.5 C 100.167,76.5 103.833,76.5 107.5,76.5C 108.067,87.304 107.234,97.9706 105,108.5C 103,111.167 101,111.167 99,108.5C 96.7659,97.9706 95.9326,87.304 96.5,76.5 Z"/></g>
<g><path style="opacity:1" fill="#2e2e2e" d="M 72.5,229.5 C 72.647,221.055 74.647,213.055 78.5,205.5C 79.4013,204.71 80.0679,203.71 80.5,202.5C 81.7275,195.923 83.7275,189.59 86.5,183.5C 87.8333,198.833 87.8333,214.167 86.5,229.5C 82.5,231.5 78.5,233.5 74.5,235.5C 73.8313,233.369 73.1646,231.369 72.5,229.5 Z"/></g>
<g><path style="opacity:1" fill="#2e2e2e" d="M 123.5,202.5 C 123.932,203.71 124.599,204.71 125.5,205.5C 129.353,213.055 131.353,221.055 131.5,229.5C 130.835,231.369 130.169,233.369 129.5,235.5C 125.5,233.5 121.5,231.5 117.5,229.5C 116.167,214.167 116.167,198.833 117.5,183.5C 120.272,189.59 122.272,195.923 123.5,202.5 Z"/></g>
<g><path style="opacity:1" fill="#727272" d="M 66.5,202.5 C 71.1667,202.5 75.8333,202.5 80.5,202.5C 80.0679,203.71 79.4013,204.71 78.5,205.5C 74.7675,203.869 70.7675,202.869 66.5,202.5 Z"/></g>
<g><path style="opacity:1" fill="#7b7b7b" d="M 123.5,202.5 C 128.167,202.5 132.833,202.5 137.5,202.5C 133.232,202.869 129.232,203.869 125.5,205.5C 124.599,204.71 123.932,203.71 123.5,202.5 Z"/></g>
</svg>
