<?xml version="1.0" standalone="no"?>
<!DOCTYPE svg PUBLIC "-//W3C//DTD SVG 20010904//EN"
 "http://www.w3.org/TR/2001/REC-SVG-20010904/DTD/svg10.dtd">
<svg version="1.0" xmlns="http://www.w3.org/2000/svg"
 width="3666.000000pt" height="2981.000000pt" viewBox="0 0 3666.000000 2981.000000"
 preserveAspectRatio="xMidYMid meet">

<g transform="translate(0.000000,2981.000000) scale(0.100000,-0.100000)"
fill="#000000" stroke="none">
<path d="M18105 29477 c-79 -43 -189 -156 -246 -253 -118 -200 -182 -447 -209
-794 -6 -80 -10 -562 -10 -1180 l0 -1045 -240 -344 c-132 -190 -240 -351 -240
-358 0 -112 -334 -4178 -376 -4582 l-7 -64 -121 -57 c-287 -137 -2104 -968
-3921 -1795 l-400 -182 -3 -883 -2 -882 22 5 c20 5 237 53 943 208 72 16 136
29 143 29 9 0 12 -25 12 -94 0 -51 5 -118 10 -147 22 -116 100 -219 208 -277
222 -118 492 -9 575 232 6 17 13 130 16 250 l6 220 375 82 c206 46 383 83 393
83 15 1 17 -9 17 -76 0 -226 75 -367 235 -448 55 -27 68 -29 170 -30 103 0
114 2 175 31 86 41 153 108 193 192 l32 67 5 225 5 225 240 52 c132 29 376 82
543 119 167 36 305 64 307 62 2 -2 -8 -37 -22 -78 -14 -41 -63 -185 -108 -320
-46 -135 -122 -360 -170 -500 -48 -140 -129 -381 -181 -534 l-94 -279 0 -537
0 -538 -685 -799 -684 -798 -1 -762 c0 -420 2 -763 5 -763 2 0 28 9 57 19 123
46 3085 1080 3108 1086 18 4 70 -10 165 -44 77 -27 464 -163 860 -301 396
-138 808 -282 915 -320 107 -38 427 -150 711 -249 284 -99 523 -183 532 -187
16 -6 17 49 17 758 l0 764 -685 800 -685 799 0 545 0 545 -36 105 c-46 134
-304 892 -438 1288 -57 166 -98 302 -92 302 5 0 245 -52 533 -115 287 -63 529
-115 538 -115 13 0 15 -27 15 -205 0 -222 10 -278 64 -363 35 -55 110 -120
174 -150 51 -24 69 -27 167 -27 104 0 114 2 176 32 82 41 150 111 191 200 29
61 32 77 36 195 4 109 7 128 21 128 9 -1 185 -38 391 -83 l375 -83 6 -215 c3
-118 10 -228 16 -244 67 -198 255 -318 450 -286 135 21 248 106 306 228 30 64
32 76 35 201 3 96 7 132 16 132 7 0 93 -18 192 -40 272 -60 915 -200 920 -200
2 0 4 395 4 878 l0 879 -27 13 c-16 7 -253 115 -528 240 -466 212 -1737 792
-2400 1095 -354 162 -972 446 -1272 585 -210 98 -222 104 -227 134 -20 105
-181 2029 -326 3886 -22 283 -44 568 -50 633 l-9 118 -137 197 c-76 108 -184
263 -240 344 l-103 146 -4 1154 c-4 1244 -2 1209 -58 1458 -72 321 -227 570
-411 663 -69 35 -100 34 -173 -6z m28 -15628 c-5 -3 -159 -59 -343 -123 -184
-64 -758 -264 -1275 -445 l-940 -329 -3 259 -2 260 113 132 c62 73 367 429
678 792 311 363 571 670 577 682 9 16 12 178 12 617 l-1 595 86 253 c48 139
206 604 352 1033 344 1010 423 1246 423 1254 0 4 -242 -46 -537 -111 -296 -65
-630 -138 -743 -162 -113 -25 -617 -136 -1120 -246 -503 -110 -1120 -245
-1370 -300 -250 -55 -610 -133 -799 -175 -188 -41 -345 -75 -347 -75 -2 0 -4
157 -4 348 l0 349 563 256 c309 141 776 353 1037 472 261 120 549 251 640 292
91 41 212 96 270 123 58 26 191 87 295 135 954 437 1324 613 1411 672 114 77
176 166 207 293 19 76 49 331 77 660 82 971 108 1288 210 2560 33 415 72 901
86 1080 l26 324 212 304 211 304 3 -6038 c1 -3321 -1 -6041 -5 -6045z m-2893
3734 c0 -93 3 -115 24 -158 29 -61 73 -108 129 -137 33 -18 59 -23 125 -23
l84 0 -44 -19 c-60 -27 -149 -26 -213 3 -60 27 -98 61 -133 121 -25 42 -27 55
-30 183 l-4 137 31 0 31 0 0 -107z m5974 -13 c0 -63 -5 -134 -12 -157 -16 -54
-90 -135 -149 -163 -64 -30 -160 -32 -223 -3 l-45 20 71 -5 c62 -4 79 -1 133
23 116 53 161 131 169 297 l5 109 26 -3 26 -3 -1 -115z m-7572 -352 c3 -102 7
-130 25 -164 35 -66 70 -101 129 -130 45 -22 68 -27 127 -26 70 0 71 0 43 -15
-46 -24 -125 -28 -191 -9 -74 22 -153 97 -178 170 -17 50 -25 275 -10 289 3 4
16 7 29 7 21 0 22 -4 26 -122z m9168 -5 c0 -71 -5 -145 -10 -165 -16 -56 -68
-117 -130 -152 -48 -27 -65 -31 -130 -31 -47 0 -88 6 -110 16 l-35 16 70 0
c151 0 260 92 284 239 5 33 9 67 9 75 -1 8 0 40 0 72 2 54 3 57 27 57 l25 0 0
-127z"/>
<path d="M260 7055 l0 -2225 425 0 425 0 0 1795 0 1795 1470 0 1470 0 0 430 0
430 -1895 0 -1895 0 0 -2225z"/>
<path d="M6655 9273 c-585 -51 -1112 -311 -1452 -716 -244 -291 -407 -654
-467 -1042 -72 -459 -23 -923 140 -1335 264 -665 833 -1151 1525 -1298 206
-44 260 -47 999 -47 734 0 777 2 991 45 427 87 850 329 1136 650 95 107 231
300 297 423 137 253 224 543 262 867 20 174 14 494 -11 660 -58 374 -194 707
-403 990 -81 110 -301 325 -417 407 -314 222 -680 354 -1095 392 -104 10
-1400 13 -1505 4z m1555 -881 c274 -60 495 -183 675 -373 173 -185 280 -403
331 -674 26 -139 26 -420 0 -560 -105 -568 -499 -969 -1051 -1071 -91 -17
-159 -19 -770 -19 -593 0 -680 2 -761 17 -272 52 -489 163 -674 348 -193 191
-322 445 -370 728 -23 132 -28 374 -10 501 83 603 518 1044 1102 1120 41 5
369 8 753 7 649 -3 684 -4 775 -24z"/>
<path d="M10250 9276 c0 -2 55 -58 122 -123 68 -65 186 -179 263 -254 167
-162 796 -767 1386 -1334 235 -225 427 -415 428 -421 1 -6 -20 -31 -46 -55
-59 -55 -595 -573 -1213 -1174 -80 -78 -300 -291 -490 -475 -405 -391 -620
-602 -620 -607 0 -2 253 -3 563 -3 l562 0 180 178 c746 738 1592 1565 1605
1570 8 3 375 -351 1000 -963 96 -94 261 -254 365 -356 105 -102 246 -240 315
-307 l125 -122 603 0 c331 0 602 2 602 3 0 2 -100 100 -222 217 -123 118 -329
316 -458 440 -129 124 -350 336 -490 470 -140 134 -304 292 -365 350 -60 59
-231 223 -380 365 -148 142 -319 306 -378 365 l-108 106 243 233 c134 129 304
293 378 365 299 289 418 403 965 930 314 302 583 562 600 577 l30 29 -570 -1
-570 0 -800 -790 c-440 -434 -803 -789 -807 -789 -4 0 -373 355 -820 790
l-813 790 -592 0 c-326 0 -593 -2 -593 -4z"/>
<path d="M18590 8850 l0 -430 825 0 825 0 0 -1795 0 -1795 430 0 430 0 0 1795
0 1795 825 0 825 0 0 430 0 430 -2080 0 -2080 0 0 -430z"/>
<path d="M23183 9273 c3 -5 174 -323 382 -708 208 -385 437 -810 510 -945 73
-135 288 -533 478 -885 366 -680 606 -1124 641 -1190 12 -22 85 -157 162 -299
162 -303 209 -363 328 -421 212 -104 461 -48 602 135 24 30 121 204 217 385
96 182 225 425 286 540 61 116 126 238 144 272 17 35 34 63 37 63 4 0 218
-403 553 -1044 92 -175 118 -214 182 -275 186 -176 492 -166 675 20 37 38 76
96 119 175 35 66 170 315 299 554 129 239 265 491 302 560 37 69 145 269 240
445 95 176 219 406 275 511 257 476 720 1335 750 1389 182 336 385 714 385
719 0 3 -216 5 -481 4 l-480 -3 -43 -80 c-24 -44 -188 -354 -366 -690 -177
-335 -339 -641 -360 -680 -20 -38 -183 -347 -362 -685 -179 -338 -353 -667
-387 -730 -34 -63 -96 -181 -138 -262 -43 -81 -79 -145 -81 -143 -3 3 -564
1118 -1425 2833 l-222 442 -512 0 c-282 0 -513 -3 -513 -6 0 -5 153 -301 295
-569 79 -150 142 -269 499 -951 l356 -682 -291 -523 c-160 -288 -294 -530
-299 -538 -9 -16 -10 -13 -360 654 -144 275 -284 541 -310 590 -54 102 -215
407 -297 565 -143 271 -168 320 -203 385 -38 71 -196 372 -332 630 -40 77
-109 209 -153 293 l-80 152 -513 0 c-282 0 -511 -3 -509 -7z"/>
<path d="M32655 9269 c-282 -27 -534 -99 -786 -224 -719 -356 -1129 -1065
-1129 -1949 1 -732 294 -1374 821 -1799 124 -99 244 -175 404 -252 150 -73
256 -112 408 -149 228 -56 261 -59 956 -63 676 -5 852 1 1041 36 574 106 1077
438 1392 921 188 287 316 651 359 1020 16 135 16 456 0 585 -71 576 -317 1059
-708 1385 -341 284 -745 446 -1223 489 -138 13 -1403 12 -1535 0z m1597 -877
c256 -58 471 -174 643 -346 176 -177 292 -398 351 -666 27 -123 27 -507 0
-630 -108 -493 -424 -852 -876 -994 -189 -60 -203 -61 -940 -61 -611 0 -684 2
-765 18 -200 40 -336 95 -495 201 -338 226 -548 625 -567 1082 -32 736 417
1312 1097 1409 74 11 246 13 775 11 660 -2 683 -3 777 -24z"/>
<path d="M1570 7015 l0 -385 1150 0 1150 0 0 385 0 385 -1150 0 -1150 0 0
-385z"/>
<path d="M23585 2706 c-16 -8 -42 -26 -57 -42 -14 -16 -140 -218 -278 -449
-139 -231 -383 -638 -544 -905 -160 -266 -292 -488 -294 -492 -2 -5 81 -8 185
-8 l188 0 46 78 c280 471 399 672 587 990 l220 372 19 -32 c198 -330 393 -660
393 -663 0 -3 -129 -5 -287 -5 l-288 0 -70 -122 c-79 -138 -84 -150 -58 -148
10 1 209 2 443 1 l425 -1 140 -235 140 -235 198 0 c108 0 197 2 197 5 0 4 -71
122 -618 1030 -112 187 -265 441 -339 565 -74 124 -147 238 -162 254 -49 53
-123 70 -186 42z"/>
<path d="M8360 1749 l0 -940 623 3 c707 4 690 3 872 92 253 125 414 331 487
623 32 126 32 360 0 487 -86 343 -336 586 -677 657 -82 17 -144 19 -697 19
l-608 0 0 -941z m1222 600 c29 -6 91 -29 136 -51 114 -54 196 -136 250 -250
53 -111 67 -173 66 -298 -2 -180 -57 -322 -169 -436 -69 -70 -126 -105 -228
-142 l-72 -27 -437 -3 -438 -3 0 610 0 611 420 0 c263 0 439 -4 472 -11z"/>
<path d="M12000 1750 l0 -940 165 0 165 0 0 940 0 940 -165 0 -165 0 0 -940z"/>
<path d="M14720 2683 c-238 -37 -447 -156 -576 -326 -61 -80 -128 -221 -155
-322 -33 -126 -37 -340 -9 -475 26 -126 57 -209 118 -312 105 -178 279 -320
479 -389 133 -46 189 -49 829 -49 l604 0 0 550 0 550 -590 0 -590 0 0 -140 0
-140 420 0 420 0 0 -246 0 -245 -452 4 c-501 4 -496 3 -627 72 -141 74 -250
227 -285 399 -71 343 111 657 425 731 53 12 157 15 612 15 l547 0 0 165 0 165
-572 -1 c-315 -1 -584 -3 -598 -6z"/>
<path d="M17670 1750 l0 -940 165 0 165 0 0 940 0 940 -165 0 -165 0 0 -940z"/>
<path d="M19572 2528 l3 -163 358 -3 357 -2 0 -775 0 -775 165 0 165 0 0 775
0 775 355 0 355 0 0 165 0 165 -880 0 -880 0 2 -162z"/>
<path d="M26432 1753 l3 -938 798 -3 797 -2 0 165 0 165 -630 0 -630 0 0 775
0 775 -170 0 -170 0 2 -937z"/>
<path d="M6537 2009 c-55 -13 -90 -33 -125 -74 -66 -75 -84 -149 -58 -239 71
-243 416 -238 480 8 48 183 -112 347 -297 305z"/>
<path d="M29749 2011 c-125 -26 -208 -140 -196 -271 6 -66 24 -105 69 -151
127 -126 347 -79 412 89 69 180 -96 372 -285 333z"/>
</g>
</svg>
