<?xml version="1.0" standalone="no"?>
<!DOCTYPE svg PUBLIC "-//W3C//DTD SVG 20010904//EN"
 "http://www.w3.org/TR/2001/REC-SVG-20010904/DTD/svg10.dtd">
<svg version="1.0" xmlns="http://www.w3.org/2000/svg"
 width="501.000000pt" height="498.000000pt" viewBox="0 0 501.000000 498.000000"
 preserveAspectRatio="xMidYMid meet">

<g transform="translate(0.000000,498.000000) scale(0.100000,-0.100000)"
fill="#000000" stroke="none">
<path d="M2290 4329 c-444 -71 -767 -228 -1063 -518 -165 -161 -252 -276 -355
-471 -46 -88 -129 -316 -118 -327 2 -3 49 18 103 46 54 28 193 98 310 156
l211 105 42 -66 c23 -37 38 -70 33 -74 -4 -4 -39 -22 -78 -38 -38 -17 -133
-60 -210 -96 -77 -35 -143 -62 -147 -60 -5 3 -8 16 -8 30 0 13 -2 24 -5 24 -3
0 -76 -34 -163 -75 -150 -71 -157 -76 -154 -102 1 -16 -2 -50 -8 -78 -6 -27
-15 -111 -20 -185 -10 -150 -2 -134 -100 -196 -30 -19 -52 -34 -49 -34 22 0
574 274 603 299 10 9 33 39 51 67 42 65 100 92 161 75 80 -22 102 -16 158 44
28 30 57 55 64 55 18 0 15 -8 -13 -42 -20 -23 -25 -41 -25 -83 0 -30 5 -65 11
-78 9 -21 8 -28 -10 -46 -11 -11 -23 -32 -27 -46 -11 -44 2 -124 25 -155 20
-28 20 -30 3 -42 -10 -7 -36 -47 -56 -88 l-38 -76 -159 -63 c-142 -57 -159
-66 -159 -87 l0 -24 -212 -2 c-117 -1 -275 -1 -350 1 -135 3 -137 3 -162 -22
l-26 -26 0 -463 c1 -348 4 -467 13 -479 26 -34 54 -41 130 -29 190 28 430 50
392 34 -26 -10 -417 -74 -454 -74 -39 0 -41 -1 -31 -20 6 -11 15 -20 21 -20 6
0 24 -13 39 -30 39 -42 62 -40 470 26 l346 57 112 -76 c123 -85 325 -188 472
-240 393 -142 866 -154 1245 -31 224 73 448 185 613 307 46 33 58 38 90 33 20
-3 177 -29 347 -57 354 -58 414 -60 449 -16 12 15 27 27 33 27 9 0 23 21 23
36 0 2 -16 4 -35 4 -42 0 -468 69 -475 77 -8 8 157 -6 334 -28 135 -18 163
-19 184 -7 50 26 52 44 52 505 0 553 10 527 -204 512 -66 -4 -123 -6 -127 -3
-8 5 -8 9 10 84 5 25 13 113 17 195 4 83 11 158 16 168 9 18 5 47 -38 265 -11
58 -11 78 -2 95 15 27 12 43 -14 80 -11 16 -36 64 -54 108 -58 137 -126 273
-158 315 l-31 42 -58 -29 -57 -29 36 -57 c73 -114 136 -260 164 -381 6 -28 16
-54 20 -57 4 -3 28 4 51 15 24 11 52 20 62 20 36 0 10 -25 -50 -48 l-60 -23
13 -62 c7 -34 17 -108 20 -164 8 -113 9 -115 68 -87 40 19 79 12 55 -10 -8 -7
-35 -20 -60 -30 l-47 -17 -6 -92 c-9 -119 -27 -280 -33 -289 -5 -9 -263 -11
-263 -3 0 3 6 44 14 92 19 115 25 183 17 183 -4 0 -70 -25 -146 -56 -77 -31
-168 -67 -202 -80 l-63 -24 0 23 c0 24 6 27 280 126 58 21 113 42 123 46 14 6
17 20 17 84 0 65 -17 251 -24 258 -2 2 -74 -26 -162 -60 -87 -35 -204 -81
-259 -102 -55 -21 -109 -46 -120 -56 -11 -10 -72 -39 -135 -65 -127 -51 -398
-154 -407 -154 -3 0 5 9 18 19 49 40 -7 31 -151 -23 -176 -65 -190 -70 -190
-58 0 5 50 28 110 51 61 23 110 47 110 52 0 5 8 12 18 16 9 3 80 30 157 59
389 147 412 154 456 153 28 -1 59 6 86 19 23 12 47 22 53 22 6 0 100 37 210
81 l199 81 -6 32 c-17 90 -60 213 -108 311 -82 165 -57 157 -233 70 -83 -41
-155 -75 -160 -75 -5 0 -14 -6 -20 -12 -8 -10 16 -13 116 -13 79 0 141 -5 164
-13 l36 -13 -31 -56 c-42 -74 -111 -149 -211 -229 -117 -93 -208 -138 -578
-284 -123 -49 -170 -72 -220 -112 -89 -72 -137 -92 -204 -83 -30 3 -54 10 -54
15 0 18 33 27 60 17 34 -13 62 -5 129 35 57 34 100 82 87 95 -4 5 -45 8 -91 8
-93 0 -99 13 -12 22 41 4 69 1 100 -11 l44 -16 202 80 c111 44 204 80 207 80
13 0 191 94 234 123 130 88 289 255 277 291 -6 18 -107 26 -210 16 -70 -7
-133 -22 -225 -53 -70 -24 -136 -47 -147 -51 -34 -11 180 91 220 105 20 8 42
24 48 36 8 14 83 57 215 123 187 94 204 100 216 84 12 -16 16 -15 64 11 38 21
51 33 49 48 -2 17 22 33 133 92 171 89 318 176 395 234 131 98 239 231 222
275 -10 26 -106 39 -248 33 -107 -4 -178 -14 -353 -51 l-219 -46 -161 6 c-307
13 -448 -40 -656 -244 -63 -62 -117 -105 -160 -128 -36 -18 -82 -43 -102 -55
-36 -22 -38 -22 -57 -5 -17 16 -22 16 -54 2 -20 -8 -37 -23 -39 -33 -3 -17
-21 -14 -244 42 l-241 61 69 32 c76 36 111 39 58 5 -18 -11 -28 -23 -24 -25 5
-3 87 -25 182 -48 120 -30 176 -40 181 -32 3 6 27 20 52 30 41 18 48 19 61 5
14 -13 26 -9 109 33 78 39 109 62 185 138 50 50 107 102 127 116 20 14 37 28
37 31 0 20 -266 115 -411 146 -126 27 -430 25 -556 -4 -110 -26 -297 -98 -410
-158 -97 -51 -299 -193 -340 -239 -18 -19 -64 -46 -121 -71 l-91 -39 20 -27
c10 -15 19 -31 19 -36 -1 -6 -321 -172 -372 -192 -5 -2 3 21 18 50 163 325
403 578 715 755 181 103 447 189 662 215 138 16 425 6 543 -19 188 -41 426
-136 596 -238 56 -35 57 -35 165 -32 l108 3 -110 73 c-248 165 -525 272 -822
317 -108 16 -440 19 -533 4z m2365 -386 c21 -12 34 -7 -285 -103 -74 -22 -137
-40 -141 -40 -5 0 -11 16 -35 101 -5 16 24 25 161 49 67 12 275 7 300 -7z
m-469 -90 c12 -63 12 -69 -7 -57 -27 16 -96 20 -159 10 -19 -4 -44 -8 -55 -9
-11 -2 -41 -13 -66 -24 -25 -12 -65 -28 -88 -37 l-42 -14 42 36 c23 20 47 49
54 66 13 30 17 32 147 58 73 14 140 27 148 27 11 1 19 -15 26 -56z m-392 -2
c6 -9 -50 -25 -124 -36 -19 -3 -59 -10 -89 -15 -74 -13 -71 -14 -71 25 l0 35
139 0 c77 0 142 -4 145 -9z m-1614 -21 c0 -12 -9 -24 -22 -29 -13 -5 -106 -45
-207 -90 -213 -94 -231 -100 -231 -77 0 16 49 42 235 125 233 104 225 101 225
71z m1336 -89 c8 -29 13 -55 11 -58 -10 -9 -37 92 -36 131 2 33 3 35 6 11 2
-16 11 -54 19 -84z m283 37 c-57 -51 -198 -126 -289 -153 -192 -58 -599 -222
-850 -343 -367 -177 -425 -202 -465 -207 -22 -3 -26 -1 -15 6 37 24 218 126
367 206 158 86 162 89 163 121 0 35 19 44 27 12 3 -11 9 -20 14 -20 4 0 62 30
129 66 120 66 122 66 208 70 84 3 119 10 322 68 180 52 310 119 395 202 22 22
42 35 44 30 2 -6 -20 -32 -50 -58z m-1289 52 c30 -6 56 -12 58 -15 6 -6 -41
-69 -92 -123 -59 -63 -107 -85 -173 -80 -90 8 -88 32 3 29 41 -1 64 4 90 19
38 24 114 107 114 125 0 18 -81 26 -142 15 -53 -10 -97 -33 -111 -57 -9 -14
-37 -18 -37 -5 0 17 33 53 63 69 63 33 137 40 227 23z m460 -5 c0 -17 -29 -31
-269 -131 -154 -64 -181 -72 -181 -54 0 13 34 30 240 121 182 81 210 89 210
64z m480 -22 l-1 -38 -152 -75 c-84 -41 -162 -85 -174 -98 -15 -17 -30 -22
-50 -20 -28 4 -28 4 36 67 101 98 259 198 319 200 19 1 22 -4 22 -36z m605
-66 c0 -32 3 -36 20 -31 20 5 20 5 1 -10 -36 -29 -48 -21 -42 27 3 23 3 34 0
25 -6 -21 -20 -24 -27 -5 -4 14 23 38 38 33 6 -1 10 -19 10 -39z m-1660 3
c-64 -31 -85 -36 -85 -20 0 6 0 13 0 18 0 12 62 30 105 31 l40 0 -60 -29z
m1599 -16 c4 -9 4 -25 0 -36 -3 -10 -2 -18 3 -17 22 4 25 -2 7 -15 -24 -18
-33 -5 -28 43 2 20 1 28 -2 19 -7 -21 -24 -24 -24 -4 0 13 13 23 31 25 4 1 10
-6 13 -15z m-1700 -10 c9 -22 8 -24 -9 -24 -8 0 -15 9 -15 20 0 24 15 27 24 4z
m-44 -17 c0 -12 -142 -87 -163 -87 -4 0 -64 -27 -134 -61 -137 -65 -177 -78
-188 -60 -4 7 14 20 47 35 29 13 82 37 118 54 36 16 100 44 143 62 44 18 95
41 115 51 44 22 62 24 62 6z m1599 -49 c-25 -18 -70 -53 -100 -78 -30 -25 -92
-78 -139 -117 -223 -186 -346 -273 -467 -333 -73 -36 -135 -60 -155 -60 -18 0
-64 -7 -103 -15 -79 -17 -88 -18 -60 -4 16 7 14 8 -10 4 -16 -4 -115 -40 -220
-82 -190 -75 -356 -135 -361 -130 -2 1 44 24 102 51 57 27 104 52 104 57 0 5
-12 15 -26 22 -26 14 -25 14 62 49 49 20 123 50 164 66 41 17 184 67 317 110
l241 80 163 108 c90 60 186 121 214 136 87 48 43 31 -121 -48 -240 -115 -385
-180 -538 -240 -151 -59 -193 -68 -68 -15 91 39 265 120 523 242 103 48 226
105 275 127 49 21 121 53 159 70 90 40 101 40 44 0z m-1630 -41 l31 -13 -55
-27 -55 -27 6 26 c7 29 10 29 -61 -16 -59 -37 -136 -69 -152 -63 -10 4 -14 2
-10 -4 3 -5 -9 -17 -28 -26 -27 -13 -35 -14 -35 -4 0 9 292 158 326 167 1 0
16 -6 33 -13z m523 -23 c-41 -20 -83 -33 -95 -31 -18 3 -12 8 28 26 46 21 106
39 130 39 6 0 -23 -15 -63 -34z m-834 -187 c163 -83 321 -163 350 -176 52 -24
73 -49 30 -35 -82 25 -470 207 -601 282 l-89 49 -113 -48 c-123 -53 -135 -56
-135 -34 0 8 4 15 10 15 5 0 58 22 117 50 59 27 114 50 121 50 8 0 147 -69
310 -153z m457 49 c122 -31 232 -59 245 -64 23 -8 16 -14 -78 -61 -57 -28
-108 -49 -114 -45 -7 5 -8 2 -3 -6 6 -10 4 -12 -8 -7 -9 3 -31 1 -48 -5 -21
-7 -37 -8 -48 -1 -9 5 -36 21 -61 35 -51 28 -202 121 -232 143 -20 13 -19 14
8 28 16 9 42 22 57 30 16 8 36 13 45 11 9 -2 116 -28 237 -58z m-915 -61 c-14
-8 -29 -14 -35 -14 -5 0 1 6 15 14 14 8 30 14 35 14 6 0 -1 -6 -15 -14z m69
-69 c-10 -9 -69 -36 -69 -32 0 7 52 35 64 36 5 0 7 -2 5 -4z m353 -145 c51
-22 147 -61 213 -86 66 -26 162 -66 214 -88 82 -36 91 -42 72 -51 -14 -6 -35
-5 -64 3 -38 12 -365 138 -514 198 -61 25 -63 25 -99 8 -20 -9 -66 -27 -102
-40 -37 -12 -88 -32 -114 -43 -37 -17 -49 -18 -57 -8 -12 15 -13 14 189 95 69
28 135 50 147 51 12 0 64 -18 115 -39z m18 -105 c0 -7 -162 -68 -166 -63 -4 4
144 66 159 67 4 0 7 -2 7 -4z m-364 -61 c-11 -8 -25 -15 -30 -15 -6 1 0 7 14
15 32 19 40 18 16 0z m1344 -5 c-13 -23 -1 -26 33 -9 37 20 -64 -98 -347 -406
-208 -226 -176 -201 -325 -251 -73 -25 -136 -42 -139 -40 -3 3 6 23 20 44 14
21 48 85 76 143 52 107 167 318 181 332 8 8 269 107 350 133 25 8 53 22 64 31
16 15 66 38 90 42 4 0 3 -8 -3 -19z m790 -10 c-49 -68 -215 -173 -420 -265
-67 -30 -124 -55 -126 -55 -2 0 -4 6 -4 13 0 7 41 30 92 52 122 52 313 157
363 201 l40 35 -80 -39 c-195 -95 -256 -122 -265 -117 -5 3 -48 -10 -95 -29
l-86 -35 -8 22 c-5 12 -12 36 -15 54 -7 31 -5 33 44 58 147 74 363 134 488
135 l93 0 -21 -30z m-1735 -10 c8 -7 15 -27 15 -46 0 -36 -12 -47 -67 -58 -25
-6 -35 -3 -52 15 -25 27 -27 71 -4 94 19 19 83 16 108 -5z m-818 -22 c-15 -42
-41 -143 -51 -202 l-12 -70 -128 -73 c-71 -41 -130 -72 -132 -70 -5 4 15 208
25 257 5 27 14 39 39 50 18 8 81 38 140 67 116 56 127 59 119 41z m1862 -75
c20 -5 16 -9 -35 -28 -33 -12 -70 -25 -82 -30 -24 -7 -24 -7 -6 20 26 40 68
53 123 38z m-1361 -25 c7 -7 12 -27 12 -44 0 -18 5 -45 10 -59 8 -20 7 -26 -2
-23 -6 2 -20 26 -29 54 -10 27 -18 44 -18 37 -1 -6 -6 -24 -12 -40 -11 -28
-11 -28 -20 -5 -9 25 -3 48 19 75 18 20 24 21 40 5z m1432 -26 c0 -27 -6 -31
-102 -69 -57 -23 -105 -39 -107 -37 -2 2 5 17 15 34 14 24 39 40 99 65 44 18
83 33 88 34 4 0 7 -12 7 -27z m-1306 -128 c16 -19 27 -36 25 -37 -28 -16 -123
-57 -134 -57 -19 0 -20 59 -2 82 11 15 66 48 77 47 3 0 18 -16 34 -35z m1196
-33 c0 -4 -18 -12 -40 -18 -48 -12 -53 1 -7 21 31 13 47 12 47 -3z m-1340 -55
c0 -29 7 -73 15 -97 16 -44 16 -44 -4 -24 -11 11 -26 43 -34 70 l-15 50 -7
-42 c-8 -45 -18 -54 -29 -27 -13 33 -5 59 26 91 18 18 36 33 40 33 4 0 8 -24
8 -54z m2368 27 c-2 -10 -27 -24 -68 -38 -36 -13 -105 -39 -154 -59 -48 -21
-89 -36 -91 -34 -10 10 27 38 80 61 89 39 208 85 223 86 8 1 12 -6 10 -16z
m-1984 -120 c-50 -59 -123 -141 -305 -336 -42 -45 -56 -54 -157 -87 -137 -46
-141 -42 -79 86 24 49 49 105 56 124 12 39 56 98 65 89 3 -3 -19 -61 -48 -130
-30 -68 -53 -125 -51 -127 5 -5 85 40 85 48 0 5 43 59 95 121 88 104 103 117
189 164 51 27 115 65 142 82 27 18 53 33 57 33 5 0 -17 -30 -49 -67z m1812
-34 c10 -17 -14 -33 -116 -72 -234 -90 -288 -106 -286 -89 1 12 48 35 161 79
88 35 174 70 190 78 37 17 42 18 51 4z m-1141 -74 c-38 -13 -71 -24 -72 -25
-2 0 -3 9 -3 19 0 23 17 29 90 29 l55 1 -70 -24z m-91 -17 c8 -32 7 -38 -4
-38 -13 0 -32 38 -25 50 10 17 22 11 29 -12z m-60 -28 c-16 -15 -690 -260
-715 -260 -33 0 -29 17 9 33 56 25 254 97 537 195 94 33 172 55 174 50 2 -5
-1 -13 -5 -18z m589 -62 c8 -23 -11 -55 -40 -66 -251 -98 -399 -146 -408 -132
-4 7 3 40 9 40 1 0 96 38 211 85 116 47 213 85 216 85 4 0 9 -6 12 -12z m-623
-3 c0 -8 -105 -53 -161 -69 -80 -24 -55 -4 44 36 90 36 117 43 117 33z m83
-54 c4 -4 -141 -57 -323 -117 -182 -61 -333 -107 -335 -103 -5 7 120 56 195
76 34 10 165 57 302 109 36 14 69 32 72 41 5 12 15 14 44 8 20 -3 40 -10 45
-14z m877 4 c0 -8 -7 -15 -15 -15 -16 0 -20 12 -8 23 11 12 23 8 23 -8z m-52
-22 c-2 -12 -36 -29 -111 -55 -101 -35 -117 -37 -99 -12 8 11 179 83 200 84 8
0 12 -8 10 -17z m-1454 -6 c15 -11 6 -17 -79 -50 -86 -32 -125 -38 -125 -18 0
6 163 79 181 80 3 1 13 -5 23 -12z m326 -6 c0 -10 -2 -11 -272 -104 -104 -36
-188 -61 -188 -57 0 8 43 24 205 79 50 16 124 43 165 60 84 33 90 35 90 22z
m-1238 -326 l-4 -75 -154 0 -154 0 0 -85 0 -85 110 0 110 0 0 -75 0 -75 -110
0 -110 0 0 -165 0 -165 -62 0 c-35 0 -73 -3 -85 -6 l-23 -6 0 408 0 409 242
-3 243 -3 -3 -74z m598 56 c48 -35 50 -46 50 -374 0 -350 -1 -355 -73 -388
-36 -16 -67 -19 -208 -19 -94 0 -179 5 -197 11 -18 6 -41 26 -54 47 -22 36
-23 42 -23 352 1 285 2 318 18 341 34 50 61 55 292 51 145 -2 174 -5 195 -21z
m2877 18 c18 -6 42 -22 53 -36 19 -25 20 -40 20 -359 l0 -334 -29 -32 -29 -33
-175 -3 c-197 -4 -239 4 -282 48 l-30 31 -3 312 c-4 402 -5 398 151 407 175
10 292 9 324 -1z m-2553 -59 c16 -30 41 -77 56 -104 l28 -49 57 107 57 106 94
0 94 0 -31 -52 c-17 -29 -62 -118 -101 -197 l-70 -145 34 -70 c18 -39 64 -126
101 -193 37 -67 67 -127 67 -133 0 -7 -30 -10 -92 -8 l-92 3 -60 112 c-33 62
-62 110 -65 107 -3 -2 -31 -53 -61 -112 l-55 -107 -92 -3 c-72 -2 -93 0 -93
10 0 8 26 61 58 118 32 58 79 144 105 191 l47 86 -100 192 c-55 105 -100 193
-100 196 0 3 42 4 93 3 l92 -3 29 -55z m1116 -15 l0 -75 -75 0 -75 0 0 -325 0
-325 -85 0 -85 0 0 325 0 325 -70 0 -70 0 0 75 0 75 230 0 230 0 0 -75z m214
48 c8 -41 54 -349 62 -415 3 -32 10 -58 14 -58 8 0 28 197 37 373 l6 127 133
0 132 0 6 -57 c3 -32 13 -141 22 -243 9 -102 20 -192 25 -200 6 -11 8 -11 9
-2 0 7 11 88 25 180 13 92 28 201 32 242 l8 75 88 3 c48 1 87 -1 87 -5 0 -32
-131 -778 -138 -785 -5 -5 -51 -7 -103 -6 l-94 3 -23 90 c-12 50 -33 140 -46
200 -17 80 -25 103 -29 85 -4 -14 -22 -95 -42 -180 -50 -219 -36 -200 -150
-200 -67 0 -97 4 -100 13 -5 12 -135 764 -135 779 0 4 38 8 84 8 84 0 84 0 90
-27z m-710 -243 c12 0 28 -5 36 -10 13 -9 11 -14 -12 -35 -20 -17 -28 -34 -28
-56 0 -31 0 -31 -24 -15 -15 10 -27 12 -31 6 -3 -6 -15 -10 -26 -10 -14 0 -19
7 -19 27 0 15 -10 37 -22 50 -19 20 -20 25 -8 33 8 5 23 10 32 10 10 0 25 15
34 32 l17 33 15 -33 c10 -21 23 -32 36 -32z m-19 -360 c14 -32 23 -40 44 -40
14 0 33 -5 41 -10 12 -8 10 -14 -13 -38 -24 -25 -26 -33 -21 -76 l7 -48 -41
23 -40 24 -43 -24 -42 -24 7 50 c6 46 4 51 -25 79 l-30 29 43 10 c35 9 47 18
63 48 11 20 23 37 26 37 3 0 14 -18 24 -40z m-811 -336 c31 -12 13 -74 -21
-74 -21 0 -35 37 -23 60 11 21 19 24 44 14z m1664 -6 c28 -28 1 -75 -37 -63
-25 8 -34 31 -21 56 12 21 40 25 58 7z"/>
<path d="M1280 1580 l0 -240 95 0 95 0 0 240 0 240 -95 0 -95 0 0 -240z"/>
<path d="M4190 1580 l0 -240 90 0 90 0 0 240 0 240 -90 0 -90 0 0 -240z"/>
<path d="M532 2871 c-11 -7 -11 -9 2 -14 10 -4 16 -1 16 8 0 17 -1 17 -18 6z"/>
<path d="M1370 2549 c-52 -44 -98 -53 -170 -33 -92 26 -179 16 -342 -40 -162
-54 -284 -101 -426 -162 -57 -24 -110 -44 -118 -44 -18 0 -78 -30 -71 -36 2
-2 33 6 68 20 64 23 121 43 256 87 40 13 75 20 79 16 4 -3 9 -48 12 -100 4
-75 1 -100 -12 -126 l-17 -32 38 7 c45 8 188 63 345 135 98 44 310 136 431
187 27 11 37 20 33 31 -3 9 -13 40 -23 68 -21 61 -33 65 -83 22z m-330 -143
l0 -63 -121 -47 c-67 -26 -123 -45 -124 -44 -1 2 -5 35 -9 75 l-6 72 82 25
c112 33 151 44 166 45 8 1 12 -18 12 -63z"/>
</g>
</svg>
