<?xml version="1.0" standalone="no"?>
<!DOCTYPE svg PUBLIC "-//W3C//DTD SVG 20010904//EN"
 "http://www.w3.org/TR/2001/REC-SVG-20010904/DTD/svg10.dtd">
<svg version="1.0" xmlns="http://www.w3.org/2000/svg"
 width="957.000000pt" height="261.000000pt" viewBox="0 0 957.000000 261.000000"
 preserveAspectRatio="xMidYMid meet">

<g transform="translate(0.000000,261.000000) scale(0.100000,-0.100000)"
fill="#000000" stroke="none">
<path d="M70 1845 l0 -575 110 0 110 0 0 465 0 465 380 0 380 0 0 110 0 110
-490 0 -490 0 0 -575z"/>
<path d="M1640 2405 c-206 -56 -352 -209 -396 -415 -20 -94 -13 -238 15 -330
57 -182 207 -328 386 -376 61 -17 496 -19 565 -3 140 31 291 152 355 283 50
103 66 175 67 296 0 252 -124 438 -349 528 -67 26 -72 26 -328 29 -205 2 -272
-1 -315 -12z m582 -238 c121 -59 188 -174 188 -323 0 -144 -62 -253 -182 -319
l-53 -30 -245 0 -245 0 -54 30 c-125 69 -193 208 -177 365 15 147 104 255 246
301 14 4 124 7 245 6 219 -2 220 -2 277 -30z"/>
<path d="M2830 2278 c80 -78 207 -203 284 -277 l138 -135 -303 -298 -304 -297
145 -1 144 0 223 223 c123 122 227 223 231 224 4 2 111 -98 237 -222 l230
-224 155 0 155 -1 -115 113 c-64 61 -203 195 -309 297 l-193 186 283 274 284
275 -145 3 -144 3 -208 -208 -207 -207 -138 136 c-76 74 -172 168 -213 207
l-75 71 -150 0 -150 0 145 -142z"/>
<path d="M4850 2310 l0 -110 215 0 215 0 0 -465 0 -465 110 0 110 0 0 465 0
465 220 0 220 0 0 110 0 110 -545 0 -545 0 0 -110z"/>
<path d="M6060 2416 c0 -5 109 -209 265 -496 67 -124 150 -279 185 -344 141
-267 156 -290 191 -308 72 -37 142 -10 186 72 13 25 51 98 85 163 34 64 65
117 69 117 3 0 44 -73 91 -162 90 -173 121 -208 180 -208 70 0 93 23 174 174
193 355 534 989 534 992 0 2 -55 4 -122 4 l-123 0 -88 -168 c-150 -287 -308
-585 -337 -636 l-28 -50 -163 325 c-89 178 -185 370 -213 427 l-51 102 -133 0
-134 0 65 -122 c35 -68 103 -197 150 -288 l85 -165 -77 -137 c-42 -76 -78
-137 -81 -138 -3 0 -45 77 -95 172 -93 177 -145 277 -279 531 l-77 147 -130 0
c-71 0 -129 -2 -129 -4z"/>
<path d="M8425 2401 c-144 -41 -273 -143 -332 -264 -53 -106 -66 -174 -61
-312 5 -104 9 -131 37 -200 58 -151 161 -255 321 -326 53 -23 66 -24 312 -27
284 -4 314 0 432 60 80 41 184 145 225 227 95 186 93 423 -3 595 -67 119 -195
214 -341 251 -89 23 -507 20 -590 -4z m600 -238 c76 -39 116 -82 152 -158 25
-53 28 -71 28 -160 0 -93 -2 -105 -33 -167 -40 -81 -102 -139 -180 -168 -52
-20 -73 -21 -282 -18 -222 3 -226 3 -275 30 -130 69 -192 189 -183 353 5 102
40 177 111 240 86 78 118 85 377 82 l225 -2 60 -32z"/>
<path d="M410 1835 l0 -95 300 0 300 0 0 95 0 95 -300 0 -300 0 0 -95z"/>
<path d="M6153 702 c-11 -7 -293 -468 -293 -479 0 -2 21 -3 47 -1 l47 3 103
175 c57 96 107 176 112 178 7 2 111 -161 111 -174 0 -2 -33 -4 -74 -4 -66 0
-77 -3 -90 -22 -9 -12 -16 -26 -16 -30 0 -5 49 -8 109 -8 l110 0 37 -60 37
-60 49 0 c27 0 47 3 45 8 -61 105 -273 452 -285 465 -16 18 -30 21 -49 9z"/>
<path d="M2190 459 l0 -240 184 3 184 3 44 30 c124 86 134 304 18 394 -56 45
-90 51 -266 51 l-164 0 0 -241z m350 141 c101 -51 107 -213 11 -277 -31 -21
-46 -23 -157 -23 l-124 0 0 160 0 160 115 0 c96 0 122 -3 155 -20z"/>
<path d="M3130 460 l0 -240 45 0 45 0 0 240 0 240 -45 0 -45 0 0 -240z"/>
<path d="M3769 673 c-35 -18 -64 -43 -83 -70 -26 -37 -30 -54 -34 -125 -4 -76
-2 -87 25 -138 18 -34 45 -66 72 -85 l43 -30 194 -3 194 -3 0 140 0 141 -155
0 -155 0 0 -35 0 -35 110 0 110 0 0 -65 0 -65 -129 0 c-116 0 -131 2 -162 23
-95 63 -91 218 7 274 36 21 52 23 192 23 l152 0 0 40 0 40 -163 0 c-158 0
-165 -1 -218 -27z"/>
<path d="M4610 460 l0 -240 45 0 45 0 0 240 0 240 -45 0 -45 0 0 -240z"/>
<path d="M5110 660 l0 -40 95 0 95 0 0 -200 0 -200 40 0 40 0 0 200 0 200 95
0 95 0 0 40 0 40 -230 0 -230 0 0 -40z"/>
<path d="M6900 460 l0 -240 211 0 210 0 -3 38 -3 37 -167 3 -168 2 0 200 0
200 -40 0 -40 0 0 -240z"/>
<path d="M1676 504 c-22 -21 -20 -67 2 -87 23 -21 66 -22 86 -1 19 18 21 75 4
92 -17 17 -74 15 -92 -4z"/>
<path d="M7730 501 c-26 -50 -1 -101 49 -101 52 0 82 68 45 104 -22 23 -81 21
-94 -3z"/>
</g>
</svg>
