<?xml version="1.0" encoding="UTF-8"?>
<!DOCTYPE svg PUBLIC "-//W3C//DTD SVG 1.1//EN" "http://www.w3.org/Graphics/SVG/1.1/DTD/svg11.dtd">
<svg xmlns="http://www.w3.org/2000/svg" version="1.1" width="3666px" height="999px" style="shape-rendering:geometricPrecision; text-rendering:geometricPrecision; image-rendering:optimizeQuality; fill-rule:evenodd; clip-rule:evenodd" xmlns:xlink="http://www.w3.org/1999/xlink">
<g><path style="opacity:1" fill="#f1f1f1" d="M -0.5,-0.5 C 1221.5,-0.5 2443.5,-0.5 3665.5,-0.5C 3665.5,332.5 3665.5,665.5 3665.5,998.5C 2443.5,998.5 1221.5,998.5 -0.5,998.5C -0.5,665.5 -0.5,332.5 -0.5,-0.5 Z"/></g>
<g><path style="opacity:1" fill="#000000" d="M 25.5,70.5 C 151.5,70.5 277.5,70.5 403.5,70.5C 403.5,99.1667 403.5,127.833 403.5,156.5C 305.833,156.5 208.167,156.5 110.5,156.5C 110.5,276.167 110.5,395.833 110.5,515.5C 82.1667,515.5 53.8333,515.5 25.5,515.5C 25.5,367.167 25.5,218.833 25.5,70.5 Z"/></g>
<g><path style="opacity:1" fill="#010101" d="M 667.5,70.5 C 718.515,70.078 769.515,70.578 820.5,72C 892.201,80.071 946.367,114.904 983,176.5C 1010.38,232.108 1016.71,290.108 1002,350.5C 978.685,436.815 923.518,490.315 836.5,511C 829.184,512.13 821.851,513.13 814.5,514C 766.185,515.606 717.851,515.94 669.5,515C 596.729,507.499 540.895,472.999 502,411.5C 469.988,351.754 461.988,288.754 478,222.5C 501.586,144.248 553.086,95.4146 632.5,76C 644.246,73.7075 655.913,71.8742 667.5,70.5 Z"/></g>
<g><path style="opacity:1" fill="#020202" d="M 1597.5,513.5 C 1558,514.499 1518.34,514.832 1478.5,514.5C 1418.85,456.185 1358.85,398.185 1298.5,340.5C 1238.87,398.131 1179.53,456.131 1120.5,514.5C 1083,514.832 1045.66,514.498 1008.5,513.5C 1087.36,437.135 1166.03,360.635 1244.5,284C 1171.56,212.731 1098.23,141.731 1024.5,71C 1064.17,70.3333 1103.83,70.3333 1143.5,71C 1197.27,123.935 1251.6,176.435 1306.5,228.5C 1359.99,176.181 1413.32,123.681 1466.5,71C 1504.5,70.3333 1542.5,70.3333 1580.5,71C 1506.89,141.945 1433.22,212.945 1359.5,284C 1438.62,360.621 1517.96,437.121 1597.5,513.5 Z"/></g>
<g><path style="opacity:1" fill="#000000" d="M 2109.5,156.5 C 2108.5,275.666 2108.17,394.999 2108.5,514.5C 2080.17,514.5 2051.83,514.5 2023.5,514.5C 2023.5,395.167 2023.5,275.833 2023.5,156.5C 1968.5,156.5 1913.5,156.5 1858.5,156.5C 1858.5,127.833 1858.5,99.1667 1858.5,70.5C 1997.17,70.5 2135.83,70.5 2274.5,70.5C 2274.5,99.1667 2274.5,127.833 2274.5,156.5C 2219.5,156.5 2164.5,156.5 2109.5,156.5 Z"/></g>
<g><path style="opacity:1" fill="#010101" d="M 2318.5,70.5 C 2352.51,70.1668 2386.51,70.5001 2420.5,71.5C 2477.91,180.545 2535.24,289.545 2592.5,398.5C 2612.89,362.893 2632.89,327.06 2652.5,291C 2614.09,218.022 2575.76,144.855 2537.5,71.5C 2571.83,70.1667 2606.17,70.1667 2640.5,71.5C 2695.36,180.562 2750.2,289.562 2805,398.5C 2863.24,289.461 2920.74,180.127 2977.5,70.5C 3009.84,70.1668 3042.17,70.5001 3074.5,71.5C 2997.7,213.77 2920.86,356.103 2844,498.5C 2828.88,518.762 2809.05,525.262 2784.5,518C 2776.25,514.754 2769.42,509.588 2764,502.5C 2741.23,460.627 2718.73,418.627 2696.5,376.5C 2675.27,415.962 2654.1,455.628 2633,495.5C 2620.51,515.792 2602.35,523.958 2578.5,520C 2566,517.001 2556.17,510.167 2549,499.5C 2471.62,356.733 2394.78,213.733 2318.5,70.5 Z"/></g>
<g><path style="opacity:1" fill="#010101" d="M 3276.5,70.5 C 3325.52,70.0815 3374.52,70.5815 3423.5,72C 3517.98,84.1065 3578.81,135.607 3606,226.5C 3620.68,291.395 3612.35,353.062 3581,411.5C 3543.77,470.652 3490.27,504.819 3420.5,514C 3371.85,515.601 3323.18,515.935 3274.5,515C 3184.89,505.498 3123.05,459.331 3089,376.5C 3069.2,319.695 3068.53,262.695 3087,205.5C 3113.19,137.981 3161.35,95.1474 3231.5,77C 3246.48,73.7406 3261.48,71.5739 3276.5,70.5 Z"/></g>
<g><path style="opacity:1" fill="#f1f1f1" d="M 3274.5,156.5 C 3319.17,156.333 3363.83,156.5 3408.5,157C 3475.16,166.327 3514.33,204.16 3526,270.5C 3530.7,309.356 3522.37,345.022 3501,377.5C 3476.37,409.235 3443.87,426.401 3403.5,429C 3361.5,429.667 3319.5,429.667 3277.5,429C 3214.14,419.901 3175.64,384.067 3162,321.5C 3153.03,274.049 3164.03,232.049 3195,195.5C 3216.99,173.255 3243.49,160.255 3274.5,156.5 Z"/></g>
<g><path style="opacity:1" fill="#f1f1f1" d="M 671.5,156.5 C 716.168,156.333 760.835,156.5 805.5,157C 855.228,162.434 890.728,187.601 912,232.5C 931.854,284.346 926.52,333.346 896,379.5C 874.233,406.639 846.066,422.805 811.5,428C 766.52,429.607 721.52,429.941 676.5,429C 612.771,421.274 573.604,386.107 559,323.5C 549.877,278.09 559.21,237.09 587,200.5C 609.729,175.385 637.896,160.719 671.5,156.5 Z"/></g>
<g><path style="opacity:1" fill="#393939" d="M 2109.5,156.5 C 2109.5,276.167 2109.5,395.833 2109.5,515.5C 2080.66,515.831 2052,515.498 2023.5,514.5C 2051.83,514.5 2080.17,514.5 2108.5,514.5C 2108.17,394.999 2108.5,275.666 2109.5,156.5 Z"/></g>
<g><path style="opacity:1" fill="#000000" d="M 156.5,259.5 C 232.833,259.5 309.167,259.5 385.5,259.5C 385.5,284.5 385.5,309.5 385.5,334.5C 309.167,334.5 232.833,334.5 156.5,334.5C 156.5,309.5 156.5,284.5 156.5,259.5 Z"/></g>
<g><path style="opacity:1" fill="#3c3c3c" d="M 156.5,259.5 C 232.998,258.501 309.665,258.167 386.5,258.5C 386.5,284.167 386.5,309.833 386.5,335.5C 309.665,335.833 232.998,335.499 156.5,334.5C 232.833,334.5 309.167,334.5 385.5,334.5C 385.5,309.5 385.5,284.5 385.5,259.5C 309.167,259.5 232.833,259.5 156.5,259.5 Z"/></g>
<g><path style="opacity:1" fill="#3d3d3d" d="M 1008.5,513.5 C 1045.66,514.498 1083,514.832 1120.5,514.5C 1083,515.83 1045.33,515.83 1007.5,514.5C 1007.62,513.893 1007.96,513.56 1008.5,513.5 Z"/></g>
<g><path style="opacity:1" fill="#3d3d3d" d="M 1597.5,513.5 C 1598.29,513.783 1598.96,514.283 1599.5,515C 1559,515.831 1518.66,515.665 1478.5,514.5C 1518.34,514.832 1558,514.499 1597.5,513.5 Z"/></g>
<g><path style="opacity:1" fill="#030303" d="M 2487.5,915.5 C 2474.68,916.495 2461.68,916.829 2448.5,916.5C 2439.53,901.227 2430.53,885.893 2421.5,870.5C 2391.83,869.833 2362.17,869.167 2332.5,868.5C 2337.18,860.472 2341.84,852.472 2346.5,844.5C 2365.77,843.845 2385.1,843.178 2404.5,842.5C 2404.38,841.893 2404.04,841.56 2403.5,841.5C 2391.03,819.226 2378.03,797.226 2364.5,775.5C 2364,774.479 2363.33,774.312 2362.5,775C 2334.35,822.144 2306.35,869.311 2278.5,916.5C 2265.99,916.829 2253.66,916.495 2241.5,915.5C 2277.66,855.194 2313.82,794.861 2350,734.5C 2359.67,723.833 2369.33,723.833 2379,734.5C 2415.18,794.861 2451.34,855.194 2487.5,915.5 Z"/></g>
<g><path style="opacity:1" fill="#b4b4b4" d="M 1479.5,729.5 C 1516,728.502 1552.66,728.168 1589.5,728.5C 1589.83,740.012 1589.49,751.346 1588.5,762.5C 1588.5,751.5 1588.5,740.5 1588.5,729.5C 1552.17,729.5 1515.83,729.5 1479.5,729.5 Z"/></g>
<g><path style="opacity:1" fill="#b3b3b3" d="M 1957.5,729.5 C 2016,728.501 2074.66,728.168 2133.5,728.5C 2133.83,740.012 2133.49,751.346 2132.5,762.5C 2132.5,751.5 2132.5,740.5 2132.5,729.5C 2074.17,729.5 2015.83,729.5 1957.5,729.5 Z"/></g>
<g><path style="opacity:1" fill="#020202" d="M 836.5,729.5 C 879.197,729.039 921.863,729.539 964.5,731C 1001.02,739.185 1024.19,761.352 1034,797.5C 1040.11,828.287 1034.44,856.62 1017,882.5C 1000.25,903.46 978.415,914.793 951.5,916.5C 913.167,916.5 874.833,916.5 836.5,916.5C 836.5,854.167 836.5,791.833 836.5,729.5 Z"/></g>
<g><path style="opacity:1" fill="#000000" d="M 1231.5,729.5 C 1231.5,791.833 1231.5,854.167 1231.5,916.5C 1220.83,916.5 1210.17,916.5 1199.5,916.5C 1199.5,854.167 1199.5,791.833 1199.5,729.5C 1210.17,729.5 1220.83,729.5 1231.5,729.5 Z"/></g>
<g><path style="opacity:1" fill="#020202" d="M 1479.5,729.5 C 1515.83,729.5 1552.17,729.5 1588.5,729.5C 1588.5,740.5 1588.5,751.5 1588.5,762.5C 1550.83,762.333 1513.17,762.5 1475.5,763C 1441.55,772.637 1426.05,795.137 1429,830.5C 1431.7,854.783 1444.2,871.616 1466.5,881C 1470.69,882.631 1475.02,883.464 1479.5,883.5C 1508.66,884.498 1538,884.831 1567.5,884.5C 1567.83,867.991 1567.5,851.658 1566.5,835.5C 1538.5,835.5 1510.5,835.5 1482.5,835.5C 1482.5,826.5 1482.5,817.5 1482.5,808.5C 1521.5,808.5 1560.5,808.5 1599.5,808.5C 1599.5,844.5 1599.5,880.5 1599.5,916.5C 1558.5,916.5 1517.5,916.5 1476.5,916.5C 1430.56,908.725 1403.73,881.725 1396,835.5C 1392.45,806.831 1399.45,781.164 1417,758.5C 1433.88,740.476 1454.72,730.809 1479.5,729.5 Z"/></g>
<g><path style="opacity:1" fill="#010101" d="M 1766.5,729.5 C 1777.5,729.5 1788.5,729.5 1799.5,729.5C 1799.5,792.167 1799.5,854.833 1799.5,917.5C 1788.5,917.5 1777.5,917.5 1766.5,917.5C 1766.5,854.833 1766.5,792.167 1766.5,729.5 Z"/></g>
<g><path style="opacity:1" fill="#010101" d="M 1957.5,729.5 C 2015.83,729.5 2074.17,729.5 2132.5,729.5C 2132.5,740.5 2132.5,751.5 2132.5,762.5C 2108.83,762.5 2085.17,762.5 2061.5,762.5C 2060.5,813.664 2060.17,864.997 2060.5,916.5C 2049.83,916.5 2039.17,916.5 2028.5,916.5C 2028.5,865.167 2028.5,813.833 2028.5,762.5C 2005.01,761.502 1981.34,761.169 1957.5,761.5C 1957.5,750.833 1957.5,740.167 1957.5,729.5 Z"/></g>
<g><path style="opacity:1" fill="#020202" d="M 2643.5,729.5 C 2654.5,729.5 2665.5,729.5 2676.5,729.5C 2676.5,781.167 2676.5,832.833 2676.5,884.5C 2718.5,884.5 2760.5,884.5 2802.5,884.5C 2802.5,895.167 2802.5,905.833 2802.5,916.5C 2749.5,916.5 2696.5,916.5 2643.5,916.5C 2643.5,854.167 2643.5,791.833 2643.5,729.5 Z"/></g>
<g><path style="opacity:1" fill="#3d3d3d" d="M 1231.5,729.5 C 1232.5,791.998 1232.83,854.664 1232.5,917.5C 1221.32,917.828 1210.32,917.495 1199.5,916.5C 1210.17,916.5 1220.83,916.5 1231.5,916.5C 1231.5,854.167 1231.5,791.833 1231.5,729.5 Z"/></g>
<g><path style="opacity:1" fill="#4a4a4a" d="M 1957.5,729.5 C 1957.5,740.167 1957.5,750.833 1957.5,761.5C 1981.34,761.169 2005.01,761.502 2028.5,762.5C 2004.5,762.5 1980.5,762.5 1956.5,762.5C 1956.17,751.321 1956.51,740.321 1957.5,729.5 Z"/></g>
<g><path style="opacity:1" fill="#f1f1f1" d="M 869.5,762.5 C 898.169,762.333 926.835,762.5 955.5,763C 990.207,772.539 1006.04,795.373 1003,831.5C 998.288,861.378 981.122,878.711 951.5,883.5C 924.167,883.5 896.833,883.5 869.5,883.5C 869.5,843.167 869.5,802.833 869.5,762.5 Z"/></g>
<g><path style="opacity:1" fill="#3a3a3a" d="M 2061.5,762.5 C 2061.5,814.167 2061.5,865.833 2061.5,917.5C 2050.32,917.828 2039.32,917.495 2028.5,916.5C 2039.17,916.5 2049.83,916.5 2060.5,916.5C 2060.17,864.997 2060.5,813.664 2061.5,762.5 Z"/></g>
<g><path style="opacity:1" fill="#b4b4b4" d="M 869.5,762.5 C 869.5,802.833 869.5,843.167 869.5,883.5C 896.833,883.5 924.167,883.5 951.5,883.5C 924.005,884.498 896.338,884.831 868.5,884.5C 868.168,843.663 868.501,802.997 869.5,762.5 Z"/></g>
<g><path style="opacity:1" fill="#040404" d="M 651.5,797.5 C 674.206,795.707 684.706,806.04 683,828.5C 677.494,843.009 666.994,848.842 651.5,846C 639.498,841.819 633.498,833.319 633.5,820.5C 635.074,809.271 641.074,801.604 651.5,797.5 Z"/></g>
<g><path style="opacity:1" fill="#040404" d="M 2971.5,797.5 C 2995.97,795.467 3006.47,806.467 3003,830.5C 2996.12,845.021 2984.95,849.854 2969.5,845C 2955.64,837.101 2951.48,825.601 2957,810.5C 2960.71,804.899 2965.54,800.566 2971.5,797.5 Z"/></g>
<g><path style="opacity:1" fill="#3e3e3e" d="M 1482.5,808.5 C 1521.66,807.501 1561,807.168 1600.5,807.5C 1600.5,844.167 1600.5,880.833 1600.5,917.5C 1559,917.832 1517.66,917.499 1476.5,916.5C 1517.5,916.5 1558.5,916.5 1599.5,916.5C 1599.5,880.5 1599.5,844.5 1599.5,808.5C 1560.5,808.5 1521.5,808.5 1482.5,808.5 Z"/></g>
<g><path style="opacity:1" fill="#b4b4b4" d="M 2403.5,841.5 C 2404.04,841.56 2404.38,841.893 2404.5,842.5C 2385.1,843.178 2365.77,843.845 2346.5,844.5C 2365.31,842.837 2384.31,841.837 2403.5,841.5 Z"/></g>
<g><path style="opacity:1" fill="#a4a4a4" d="M 1566.5,835.5 C 1567.5,851.658 1567.83,867.991 1567.5,884.5C 1538,884.831 1508.66,884.498 1479.5,883.5C 1508.5,883.5 1537.5,883.5 1566.5,883.5C 1566.5,867.5 1566.5,851.5 1566.5,835.5 Z"/></g>
<g><path style="opacity:1" fill="#3d3d3d" d="M 836.5,729.5 C 836.5,791.833 836.5,854.167 836.5,916.5C 874.833,916.5 913.167,916.5 951.5,916.5C 913.004,917.499 874.337,917.832 835.5,917.5C 835.168,854.664 835.501,791.998 836.5,729.5 Z"/></g>
<g><path style="opacity:1" fill="#414141" d="M 2241.5,915.5 C 2253.66,916.495 2265.99,916.829 2278.5,916.5C 2265.99,917.825 2253.33,917.825 2240.5,916.5C 2240.62,915.893 2240.96,915.56 2241.5,915.5 Z"/></g>
<g><path style="opacity:1" fill="#404040" d="M 2487.5,915.5 C 2488.04,915.56 2488.38,915.893 2488.5,916.5C 2475.01,917.825 2461.67,917.825 2448.5,916.5C 2461.68,916.829 2474.68,916.495 2487.5,915.5 Z"/></g>
<g><path style="opacity:1" fill="#535353" d="M 2643.5,729.5 C 2643.5,791.833 2643.5,854.167 2643.5,916.5C 2696.5,916.5 2749.5,916.5 2802.5,916.5C 2749.34,917.499 2696,917.832 2642.5,917.5C 2642.17,854.664 2642.5,791.998 2643.5,729.5 Z"/></g>
</svg>
